<svg width="30" height="30" viewBox="0 0 30 30" fill="none" xmlns="http://www.w3.org/2000/svg">
<path d="M15.2466 29.4932C7.37649 29.4932 1 23.1167 1 15.2466C1 7.37649 7.37649 1 15.2466 1C23.1167 1 29.4932 7.37649 29.4932 15.2466C29.474 23.1167 23.0975 29.4932 15.2466 29.4932Z" stroke="white" stroke-miterlimit="10"/>
<path d="M21.4699 24.61H9.02332C7.29995 24.61 5.9021 23.2121 5.9021 21.4887V9.04212C5.9021 7.31875 7.29995 5.9209 9.02332 5.9209H21.4699C23.1933 5.9209 24.5912 7.31875 24.5912 9.04212V21.4887C24.5912 23.2121 23.1933 24.61 21.4699 24.61ZM9.00418 6.93578C7.83611 6.93578 6.89783 7.87406 6.89783 9.04212V21.4887C6.89783 22.6568 7.83611 23.5951 9.00418 23.5951H21.4508C22.6188 23.5951 23.5571 22.6568 23.5571 21.4887V9.04212C23.5571 7.87406 22.6188 6.93578 21.4508 6.93578H9.00418Z" fill="white"/>
<path d="M15.2466 20.0528C13.9637 20.0528 12.7573 19.555 11.8573 18.655C10.9573 17.755 10.4595 16.5486 10.4595 15.2657C10.4595 13.9827 10.9573 12.7764 11.8573 11.8764C12.7573 10.9764 13.9637 10.4785 15.2466 10.4785C16.5296 10.4785 17.736 10.9764 18.6359 11.8764C19.5359 12.7764 20.0338 13.9827 20.0338 15.2657C20.0338 16.5486 19.5359 17.755 18.6359 18.655C17.7168 19.555 16.5104 20.0528 15.2466 20.0528ZM15.2466 11.4742C13.1594 11.4742 11.4744 13.1593 11.4744 15.2465C11.4744 17.3337 13.1594 19.0188 15.2466 19.0188C17.3338 19.0188 19.0189 17.3337 19.0189 15.2465C19.0189 13.1785 17.3147 11.4742 15.2466 11.4742Z" fill="white"/>
<path d="M22.121 8.50654C22.121 9.02355 21.6997 9.42567 21.2018 9.42567C20.6848 9.42567 20.2827 9.0044 20.2827 8.50654C20.2827 7.98952 20.704 7.5874 21.2018 7.5874C21.6997 7.5874 22.121 7.98952 22.121 8.50654Z" fill="white"/>
</svg>
