<svg width="30" height="30" viewBox="0 0 30 30" fill="none" xmlns="http://www.w3.org/2000/svg">
<path d="M15.2466 29.4932C7.37649 29.4932 1 23.1167 1 15.2466C1 7.37649 7.37649 1 15.2466 1C23.1167 1 29.4932 7.37649 29.4932 15.2466C29.4932 23.1167 23.0975 29.4932 15.2466 29.4932Z" stroke="white" stroke-miterlimit="10"/>
<path d="M10.8614 12.5273H7.52954V23.1548H10.8614V12.5273Z" fill="white"/>
<path d="M19.8806 12.2974C19.7465 12.2783 19.6316 12.2783 19.4976 12.2591C17.6402 12.1825 16.5679 13.2932 16.204 13.7719C16.1083 13.9059 16.0508 13.9825 16.0508 13.9825V12.5655H12.853V23.193H16.0508H16.204C16.204 22.1207 16.204 21.0292 16.204 19.9569C16.204 19.3633 16.204 18.7888 16.204 18.1952C16.204 17.4676 16.1466 16.7016 16.5104 16.0506C16.8168 15.4953 17.3721 15.2272 17.9849 15.2272C19.8231 15.2272 19.8614 16.8931 19.8614 17.0463V17.0654V23.2505H23.1933V16.2995C23.2124 13.9251 22.0061 12.5272 19.8806 12.2974Z" fill="white"/>
<path d="M10.5628 10.5863C11.3181 9.83102 11.3181 8.60648 10.5628 7.85121C9.80755 7.09594 8.58302 7.09594 7.82775 7.85121C7.07247 8.60648 7.07247 9.83102 7.82774 10.5863C8.58302 11.3416 9.80755 11.3416 10.5628 10.5863Z" fill="white"/>
</svg>
