<svg width="129" height="129" viewBox="0 0 129 129" fill="none" xmlns="http://www.w3.org/2000/svg">
<path d="M52.5724 51.8821L63.3098 63.3163C63.8163 63.82 64.4747 64.1222 65.1837 64.1222C65.8928 64.1222 66.6019 63.82 67.0577 63.3163L77.5418 51.9324L80.0236 57.3221L81.7456 55.4584L78.9093 49.4139C78.7574 49.0613 78.4028 48.8095 78.0483 48.7591C77.6431 48.7087 77.2886 48.8598 76.9847 49.1117L65.3357 61.8052C65.285 61.8555 65.2344 61.8555 65.1837 61.8555C65.1331 61.8555 65.0824 61.8555 65.0318 61.8052L53.1296 49.1117C52.8763 48.8094 52.4711 48.7087 52.1166 48.7591C51.7114 48.8095 51.4075 49.0613 51.2556 49.4139L47.0518 58.0273L38.9482 49.1117C38.6443 48.7591 38.0872 48.608 37.6313 48.8095C37.1755 48.9606 36.8716 49.4139 36.8716 49.9176V79.2335C36.8716 79.7876 37.2261 80.2409 37.7833 80.392C38.3404 80.4928 38.8469 80.2409 39.1001 79.7372L52.5724 51.8821ZM39.2521 74.0453V52.8895L45.9376 60.2437L39.2521 74.0453ZM92.0271 48.7591C92.4829 48.9102 92.7868 49.3635 92.7868 49.8672V79.1831C92.7868 79.7372 92.3816 80.1906 91.8751 80.3417C91.7738 80.3417 91.7232 80.392 91.6219 80.392C91.1661 80.392 90.7609 80.1402 90.5583 79.7372L83.265 64.1222L84.987 62.2585L90.457 73.9446V52.8895L66.6525 78.8809C66.1461 79.3846 65.4876 79.7372 64.7786 79.7372C64.0695 79.7372 63.3604 79.435 62.9046 78.8809L49.2803 63.9711L50.3946 61.7044L64.5253 77.269C64.576 77.3194 64.6266 77.3194 64.6773 77.3194C64.7279 77.3194 64.7786 77.3194 64.8292 77.269L90.7102 49.0613C91.0648 48.7087 91.5713 48.608 92.0271 48.7591ZM53.2309 0.755564L55.7632 9.72159L53.6867 10.2757L51.6101 2.87114L49.4829 11.4846L48.8751 11.6357L42.5948 5.44006L44.6714 12.8446L43.7597 13.0964L41.2273 4.13042L43.6078 3.4756L49.179 8.96603L51.053 1.36002L53.2309 0.755564ZM68.1213 7.50527L62.4994 7.40453L61.4865 9.26825H60.4735L65.4876 0H66.7538L71.4134 9.41937L68.9823 9.369L68.1213 7.50527ZM67.6655 6.64897L65.3863 2.06521L62.9552 6.54822L67.6655 6.64897ZM75.4146 8.96603L76.1743 8.31121L76.3769 8.36158C76.9847 9.26826 78.2002 10.1749 79.821 10.6283C81.4923 11.0816 82.5559 10.9305 82.8598 9.97345C83.5183 7.55564 76.5289 6.90082 77.4912 3.57634C77.8963 2.16595 79.7197 1.41039 82.5559 2.21632C83.9741 2.61929 85.3416 3.27411 86.1013 4.23116L85.3922 4.88598L85.139 4.83561C84.6325 4.02968 83.5689 3.42522 82.2521 3.07263C80.4794 2.56892 79.669 2.87114 79.4664 3.52597C78.9093 5.5408 86 6.54822 85.0377 9.92308C84.4806 11.8875 82.1508 12.1898 79.5171 11.4342C77.7444 10.9809 76.3263 10.0742 75.4146 8.96603ZM95.5724 16.2698L90.7609 13.449L88.9376 14.5572L88.0766 14.0535L96.9906 8.41195L98.1048 9.06677L97.5477 19.5439L95.4711 18.335L95.5724 16.2698ZM95.6231 15.3128L95.8763 10.2253L91.5206 12.9453L95.6231 15.3128ZM106.31 27.7544L107.525 23.221L105.601 21.3069L102.714 24.1277L101.194 22.6166L107.88 16.0683L111.729 19.9469C113.704 21.9114 114.059 23.3721 112.793 24.6314C111.83 25.5884 110.615 25.6892 109.197 24.7825L108.184 29.7189L106.31 27.7544ZM106.208 20.7025L108.538 23.0699C109.247 23.8255 110.058 23.9262 110.817 23.221L111.273 22.7677C111.982 22.0625 111.83 21.3069 111.121 20.5513L108.792 18.1839L106.208 20.7025ZM115.933 38.433L113.198 33.5974L111.071 33.6478L110.564 32.7411L121.099 32.3885L121.707 33.4967L115.933 42.3116L114.768 40.196L115.933 38.433ZM116.439 37.6271L119.276 33.3456L114.16 33.4967L116.439 37.6271ZM120.035 58.531L122.213 56.1636L119.428 54.048L119.276 52.8895L122.77 55.5592L125.91 52.0836L126.265 54.5517L124.188 56.8688L126.873 58.8836L127.025 60.0422L123.631 57.4733L120.39 61.0496L120.035 58.531ZM125.708 87.6958L116.642 85.2276L117.199 83.1624L124.644 85.2276L118.364 78.9817L118.516 78.3772L127.126 76.2113L119.681 74.146L119.934 73.2394L129 75.7075L128.342 78.075L120.694 79.9891L126.265 85.4795L125.708 87.6958ZM112.185 96.813L115.173 92.1285L114.11 90.3151L114.667 89.4588L119.985 98.5256L119.326 99.5834L108.792 98.6767L110.108 96.6618L112.185 96.813ZM113.147 96.9137L118.263 97.3671L115.68 92.9344L113.147 96.9137ZM107.12 102.253L107.272 103.26L107.12 103.412C106.057 103.462 104.638 104.016 103.372 105.175C102.106 106.383 101.701 107.391 102.359 108.096C104.081 109.909 108.234 104.318 110.615 106.837C111.628 107.895 111.324 109.859 109.146 111.874C108.082 112.881 106.816 113.687 105.601 113.889L105.398 112.932L105.55 112.781C106.512 112.73 107.576 112.176 108.589 111.269C109.956 110.01 110.108 109.204 109.602 108.65C108.184 107.139 103.625 112.629 101.245 110.061C99.8775 108.6 100.789 106.434 102.815 104.57C104.183 103.21 105.702 102.505 107.12 102.253ZM90.4064 115.652L95.3192 112.982L95.2685 110.866L96.1802 110.363L96.4334 120.84L95.3192 121.444L86.5571 115.551L88.6843 114.392L90.4064 115.652ZM91.2167 116.206L95.4711 119.077L95.3698 113.989L91.2167 116.206ZM74.9588 118.875L78.2509 122.25L80.8846 121.646L79.9729 117.717L82.0495 117.213L84.2273 126.28L78.8587 127.539C76.1237 128.194 74.7055 127.741 74.3003 126.028C73.9965 124.668 74.5029 123.61 76.0224 122.905L72.3251 119.48L74.9588 118.875ZM81.0872 122.452L77.8457 123.207C76.8327 123.459 76.3263 124.064 76.5289 125.021L76.6808 125.676C76.934 126.683 77.6431 126.935 78.6561 126.683L81.8975 125.927L81.0872 122.452ZM60.7774 121.495L66.3993 121.696L67.4629 119.832L68.4759 119.883L63.3098 129L62.0436 128.95L57.4853 119.48L59.9164 119.581L60.7774 121.495ZM61.1826 122.351L63.4111 126.935L65.9435 122.502L61.1826 122.351ZM41.3793 114.594L42.2909 117.667L45.583 116.357L46.6466 116.81L42.5442 118.422L43.9117 122.905L41.6325 121.898L40.7208 118.926L37.5807 120.135L36.5171 119.681L40.4676 118.12L39.0495 113.536L41.3793 114.594ZM13.371 104.318L20.2085 97.9211L21.6773 99.4826L16.0554 104.772L24.7161 102.656L25.172 103.109L22.5889 111.521L28.2108 106.232L28.8693 106.887L21.9305 113.335L20.2591 111.572L22.5889 104.117L14.9411 106.031L13.371 104.318ZM12.51 88.0988L14.9918 93.0855L17.119 93.1359L17.5748 94.0426L6.9894 93.8914L6.43227 92.7833L12.662 84.2706L13.7256 86.4366L12.51 88.0988ZM11.9529 88.8544L8.91402 92.9848L14.0294 93.0855L11.9529 88.8544ZM10.4335 80.9461L9.47114 80.5935L9.42049 80.392C9.92697 79.4854 10.2309 77.9742 9.87632 76.312C9.52179 74.5994 8.86337 73.7431 7.90106 73.9446C5.46996 74.4483 8.10365 80.9461 4.71025 81.6513C3.29211 81.9535 1.77267 80.6943 1.1649 77.7727C0.861013 76.312 0.810365 74.8512 1.31684 73.6927L2.2285 73.9949L2.27915 74.2468C1.82332 75.0527 1.72203 76.2616 2.02591 77.6216C2.4311 79.435 3.03887 79.9891 3.74794 79.838C5.77385 79.435 3.44405 72.6853 6.8881 71.9801C8.86337 71.5771 10.2309 73.4408 10.788 76.1105C11.1425 77.9742 10.9906 79.6365 10.4335 80.9461ZM7.59717 59.7903L7.34393 65.3311L9.16726 66.3889L9.11661 67.3963L0 62.1578L0.0506478 60.8985L9.62309 56.4658L9.52179 58.8836L7.59717 59.7903ZM6.73616 60.1933L2.07656 62.3089L6.53357 64.8778L6.73616 60.1933ZM12.8645 44.9813L8.25559 46.039L7.44523 48.608L11.2945 49.8672L10.636 51.8821L1.67138 49.0109L3.3934 43.8227C4.25442 41.1531 5.36867 40.196 7.09069 40.7501C8.40754 41.1531 9.01531 42.1605 8.86337 43.8227L13.7256 42.4627L12.8645 44.9813ZM6.58422 48.3561L7.59717 45.1827C7.90106 44.2257 7.64782 43.4198 6.68551 43.1175L6.07774 42.916C5.11543 42.6138 4.50766 43.1175 4.20377 44.0746L3.19081 47.248L6.58422 48.3561ZM17.9293 31.5826L14.8398 36.2671L15.9034 38.1308L15.3463 38.9871L10.1296 29.7692L10.8386 28.7114L21.3734 29.7692L20.0565 31.7841L17.9293 31.5826ZM16.967 31.4818L11.8516 30.9781L14.384 35.4108L16.967 31.4818ZM33.934 18.6373L30.7939 17.8313L30.1861 21.2565L29.2238 21.9114L29.9329 17.5795L25.3746 16.4209L27.4005 14.9602L30.4393 15.7157L30.9965 12.4416L31.9588 11.7868L31.2497 15.9676L35.96 17.1765L33.934 18.6373Z" fill="white"/>
</svg>
