<svg width="27" height="26" viewBox="0 0 27 26" fill="none" xmlns="http://www.w3.org/2000/svg">
<path d="M13.5607 13.936C13.4767 13.924 13.3687 13.924 13.2727 13.936C11.1607 13.864 9.48071 12.136 9.48071 10.012C9.48071 7.84002 11.2327 6.07602 13.4167 6.07602C15.5887 6.07602 17.3527 7.84002 17.3527 10.012C17.3407 12.136 15.6727 13.864 13.5607 13.936Z" stroke="#262626" stroke-width="1.5" stroke-linecap="round" stroke-linejoin="round"/>
<path d="M21.5049 21.856C19.3689 23.812 16.5369 25 13.4169 25C10.2969 25 7.46486 23.812 5.32886 21.856C5.44886 20.728 6.16886 19.624 7.45286 18.76C10.7409 16.576 16.1169 16.576 19.3809 18.76C20.6649 19.624 21.3849 20.728 21.5049 21.856Z" stroke="#262626" stroke-width="1.5" stroke-linecap="round" stroke-linejoin="round"/>
<path d="M13.4167 25C20.0442 25 25.4167 19.6274 25.4167 13C25.4167 6.37258 20.0442 1 13.4167 1C6.78933 1 1.41675 6.37258 1.41675 13C1.41675 19.6274 6.78933 25 13.4167 25Z" stroke="#262626" stroke-width="1.5" stroke-linecap="round" stroke-linejoin="round"/>
</svg>
