<svg width="24" height="24" viewBox="0 0 24 24" fill="none" xmlns="http://www.w3.org/2000/svg">
<path d="M3 22H21" stroke="#262626" stroke-width="1.5" stroke-linecap="round" stroke-linejoin="round"/>
<path d="M5.59998 8.38H4C3.45 8.38 3 8.83 3 9.38V18C3 18.55 3.45 19 4 19H5.59998C6.14998 19 6.59998 18.55 6.59998 18V9.38C6.59998 8.83 6.14998 8.38 5.59998 8.38Z" stroke="#262626" stroke-width="1.5" stroke-linecap="round" stroke-linejoin="round"/>
<path d="M12.7992 5.19H11.1992C10.6492 5.19 10.1992 5.64 10.1992 6.19V18C10.1992 18.55 10.6492 19 11.1992 19H12.7992C13.3492 19 13.7992 18.55 13.7992 18V6.19C13.7992 5.64 13.3492 5.19 12.7992 5.19Z" stroke="#262626" stroke-width="1.5" stroke-linecap="round" stroke-linejoin="round"/>
<path d="M19.9984 2H18.3984C17.8484 2 17.3984 2.45 17.3984 3V18C17.3984 18.55 17.8484 19 18.3984 19H19.9984C20.5484 19 20.9984 18.55 20.9984 18V3C20.9984 2.45 20.5484 2 19.9984 2Z" stroke="#262626" stroke-width="1.5" stroke-linecap="round" stroke-linejoin="round"/>
</svg>
