<svg width="30" height="30" viewBox="0 0 30 30" fill="none" xmlns="http://www.w3.org/2000/svg">
<path d="M15.2466 29.4932C7.37649 29.4932 1 23.1167 1 15.2466C1 7.37649 7.37649 1 15.2466 1C23.1167 1 29.4932 7.37649 29.4932 15.2466C29.4932 23.1167 23.1167 29.4932 15.2466 29.4932Z" stroke="white" stroke-miterlimit="10"/>
<path d="M16.6444 16.9318V25.6253H12.6423V16.9318H9.32959V13.4085H12.6423V12.1255C12.6423 7.35748 14.6338 4.86816 18.8465 4.86816C20.1294 4.86816 20.4549 5.0788 21.1634 5.25114V8.73619C20.3783 8.60215 20.1486 8.52555 19.3252 8.52555C18.3486 8.52555 17.8316 8.79363 17.3529 9.34894C16.8741 9.90425 16.6444 10.8425 16.6444 12.1829V13.4276H21.1634L19.9571 16.9509H16.6444V16.9318Z" fill="white"/>
</svg>
