<svg width="45" height="8" viewBox="0 0 45 8" fill="none" xmlns="http://www.w3.org/2000/svg">
<path d="M44.3536 4.35355C44.5488 4.15829 44.5488 3.84171 44.3536 3.64645L41.1716 0.464466C40.9763 0.269204 40.6597 0.269204 40.4645 0.464466C40.2692 0.659728 40.2692 0.97631 40.4645 1.17157L43.2929 4L40.4645 6.82843C40.2692 7.02369 40.2692 7.34027 40.4645 7.53553C40.6597 7.7308 40.9763 7.7308 41.1716 7.53553L44.3536 4.35355ZM0.646447 3.64644C0.451184 3.8417 0.451184 4.15829 0.646447 4.35355L3.82843 7.53553C4.02369 7.73079 4.34027 7.73079 4.53553 7.53553C4.7308 7.34027 4.7308 7.02369 4.53553 6.82842L1.70711 4L4.53553 1.17157C4.7308 0.976307 4.7308 0.659725 4.53553 0.464463C4.34027 0.2692 4.02369 0.2692 3.82843 0.464463L0.646447 3.64644ZM44 3.5L1 3.5L1 4.5L44 4.5L44 3.5Z" fill="#909090"/>
</svg>
