<svg width="30" height="30" viewBox="0 0 30 30" fill="none" xmlns="http://www.w3.org/2000/svg">
<path d="M15.2466 29.4932C7.3765 29.4932 1 23.1167 1 15.2466C1 7.37649 7.3765 1 15.2466 1C23.1167 1 29.4932 7.37649 29.4932 15.2466C29.4932 23.1167 23.1167 29.4932 15.2466 29.4932Z" stroke="white" stroke-miterlimit="10"/>
<path d="M22.3315 8.75537H8.16149C6.26578 8.75537 4.73389 10.2873 4.73389 12.183V18.3105C4.73389 20.2062 6.26578 21.7381 8.16149 21.7381H22.3315C24.2272 21.7381 25.7591 20.2062 25.7591 18.3105V12.183C25.7591 10.3064 24.2272 8.75537 22.3315 8.75537ZM12.5082 18.4063V12.1064L17.9656 15.2659L12.5082 18.4063Z" fill="white"/>
</svg>
